<svg xmlns="http://www.w3.org/2000/svg" width="256" height="256"><path fill="#1976D2" fill-opacity=".012" fill-rule="evenodd" d="M0 128.004v128.004l128.25-.254 128.25-.254.254-127.75L257.008 0H0v128.004m.485.496c0 70.4.119 99.053.265 63.672.146-35.38.146-92.98 0-128C.604 29.153.485 58.1.485 128.5"/><path fill="#1976D2" fill-opacity=".178" fill-rule="evenodd" d="M105.922 1.492C58.953 10.368 21.4 42.733 6.559 87.127 1.869 101.157 0 112.802 0 128c0 60.429 39.527 109.959 100 125.307 7.271 1.846 11.319 2.158 28 2.158 16.681 0 20.729-.312 28-2.158 45.615-11.577 79.296-42.015 93.429-84.434 1.901-5.705 3.973-13.523 4.603-17.373.631-3.85 1.557-7.781 2.058-8.736 1.065-2.032 1.253-31.441.194-30.381-.394.393-1.305-2.769-2.024-7.029-.719-4.259-2.878-12.437-4.797-18.172-14.169-42.343-47.895-72.945-92.963-84.354-10.644-2.694-39.376-3.453-50.578-1.336M.402 128c0 8.525.154 12.012.341 7.75.188-4.262.188-11.237 0-15.5-.187-4.263-.341-.775-.341 7.75"/><path fill="#1976D2" fill-opacity=".604" fill-rule="evenodd" d="M108 1.651C90.523 4.326 71.676 11.808 56 22.293 46.364 28.739 28.739 46.364 22.293 56c-29.533 44.153-29.533 99.847 0 144 6.446 9.636 24.071 27.261 33.707 33.707 44.153 29.533 99.847 29.533 144 0 9.636-6.446 27.261-24.071 33.707-33.707 10.405-15.557 18.137-34.97 20.312-51 .634-4.675 1.564-9.281 2.067-10.236 1.115-2.119 1.232-23.079.125-22.395-.433.268-1.35-3.634-2.036-8.672-2.258-16.584-9.913-35.916-20.468-51.697-6.446-9.636-24.071-27.261-33.707-33.707-27.357-18.299-59.783-25.574-92-20.642m-9.235 8.395c-9.367 2.303-24.155 8.021-23.057 8.915.436.355 4.164 1.696 8.285 2.978 36.209 11.272 66.008 40.307 78.574 76.561 1.525 4.4 2.879 8.145 3.008 8.322.13.177 4.412 2.123 9.516 4.323 9.594 4.136 27.651 9.446 28.667 8.43.976-.975-2.475-19.59-5.298-28.575-9.967-31.734-32.257-58.429-61.179-73.272-11.258-5.778-22.397-9.748-27.091-9.656-2.029.04-7.171.929-11.425 1.974M58.5 28.214c-9.366 6.421-25.513 23.147-32.037 33.185-18.779 28.897-24.5 63.546-16.014 96.998 3.597 14.182 4.139 14.397 4.912 1.95 1.586-25.553 10.279-50.794 24.857-72.173 12.03-17.642 36.111-38.209 55.713-47.582l7.43-3.552-8.537-4.001c-7.835-3.672-25.25-9.101-28.824-8.986-.825.027-4.2 1.899-7.5 4.161m74.518 52.345c-40.868 19.585-69.251 55.698-77.517 98.625-1.98 10.283-3.025 30.097-2.062 39.091.705 6.583.815 6.789 4.891 9.163 4.687 2.729 16.627 5.151 30.259 6.137l9.089.658.649-13.867c1.099-23.49 5.369-41.483 14.207-59.866 9.852-20.491 25.968-39.888 43.918-52.858 1.928-1.393 1.928-1.479.049-7.009-2.797-8.226-11.008-24.095-12.613-24.376-.763-.133-5.655 1.802-10.87 4.302m19.635 38.485C144.476 125.859 131 140.699 131 142.89c0 1.829 11.214 9.522 21.697 14.885 15.254 7.804 32.889 12.559 49.769 13.421l5.966.304 5.238-10c4.089-7.807 12.33-29.049 12.33-31.784 0-.265-3.488-.799-7.75-1.187-16.935-1.544-34.998-6.275-49.92-13.075l-7.35-3.349-8.327 6.939M.378 128c0 6.325.163 8.912.361 5.75.198-3.163.198-8.338 0-11.5-.198-3.163-.361-.575-.361 5.75m106.204 71.814c-.344 1.477-.908 9.614-1.252 18.082l-.627 15.396 6.399-.697c11.995-1.305 36.767-8.453 40.237-11.61.461-.419-2.239-1.77-6-3.001-8.97-2.936-24.286-10.782-31.988-16.385l-6.142-4.47-.627 2.685"/><path fill="#1976D2" fill-opacity=".976" fill-rule="evenodd" d="M116.009 1.056C58.66 6.803 12.323 49.626 2.41 106.039c-2.151 12.244-2.151 31.678 0 43.922 9.253 52.653 50.976 94.376 103.629 103.629 12.244 2.151 31.678 2.151 43.922 0 45.896-8.065 84.178-41.074 99.023-85.383 3.275-9.775 6.016-24.026 6.016-31.279 0-2.645.45-5.088 1-5.428.55-.34 1-2.418 1-4.618 0-2.412-.397-3.755-1-3.382-.615.38-1-1.279-1-4.31 0-7.361-2.721-21.563-6.016-31.397-12.704-37.92-42.87-68.077-80.812-80.789-15.563-5.214-36.111-7.557-52.163-5.948m22.491 10.17c14.928 7.876 21.886 12.983 33.629 24.684 14.744 14.691 23.998 29.257 30.75 48.402 3.367 9.546 7.121 26.4 7.121 31.973 0 1.908.563 3.932 1.25 4.497 1.2.986 9.908 1.563 20.061 1.329l4.81-.111-.639-7.25c-1.477-16.754-6.154-35.53-12.102-48.582-4.603-10.1-14.668-25.076-22.647-33.693-12.591-13.6-37.788-23.617-65.233-25.935l-7-.591 10 5.277M99.444 9.375C90.062 11.7 74 17.714 74 18.903c0 .373 2.969 1.47 6.597 2.437 24.14 6.432 48.679 23.533 64.621 45.035 6.251 8.431 14.335 24.067 17.643 34.125 2.26 6.871 3.575 7.938 15.447 12.542 8.274 3.208 25.273 8.044 25.938 7.378.798-.798-1.319-14.453-3.691-23.802-5.365-21.151-16.574-40.712-32.501-56.72-13.93-14-30.948-24.538-49.772-30.822-7.512-2.508-7.507-2.508-18.838.299M57.988 28.144C33.596 45.274 16.795 70.028 9.218 100c-2.371 9.381-2.654 12.366-2.654 28 0 15.621.284 18.627 2.649 28 1.457 5.775 3.307 12.052 4.112 13.95l1.462 3.449.643-8.949c2.559-35.63 13.061-62.408 34.43-87.786 11.178-13.276 29.697-27.556 46.39-35.771 3.713-1.827 6.75-3.605 6.75-3.95 0-.862-14.372-7.398-20.5-9.322-2.75-.864-7.802-2.215-11.227-3.002l-6.227-1.431-7.058 4.956M98.913 46.25c-15.989 8.054-24.334 14.123-37.437 27.226-12.715 12.715-19.007 21.257-26.059 35.376-9.7 19.421-13.709 37.434-13.834 62.148l-.083 16.5 4.673 7c5.164 7.736 15.2 19.672 18.461 21.956l2.095 1.468.562-17.212c.818-25.088 4.625-40.038 15.668-61.536 14.327-27.893 38.689-51.045 67.726-64.365 5.123-2.35 9.315-4.821 9.315-5.49C140 66.248 113.068 41 109.791 41c-.25 0-5.145 2.362-10.878 5.25m128.608 14.59c7.488 15.288 12.955 35.477 14.144 52.227l.642 9.035 3.596-.301 3.597-.301-.331-5.5c-1.104-18.362-11.983-46.781-22.833-59.643-1.987-2.354-1.778-1.566 1.185 4.483M131.5 80.904c-29.433 14.404-50.986 35.578-64.933 63.79-9.575 19.369-13.779 38.691-13.74 63.145.021 13.422.252 15.591 1.848 17.357 4.539 5.022 26.831 16.261 39.825 20.079l5 1.469.004-21.122c.004-23.181 1.076-31.035 6.5-47.635 8.405-25.719 26.873-52.129 46.844-66.987 6.731-5.007 6.6-4.198 2.419-15-2.597-6.71-10.242-21.012-11.216-20.984-.303.008-5.951 2.658-12.551 5.888m24.978 34.258c-6.419 5.102-18.248 16.91-22.726 22.685l-4.145 5.348 2.446 1.943c14.923 11.856 31.809 19.815 50.947 24.014 8.704 1.909 13.494 2.307 28 2.326 9.625.012 20.577-.356 24.338-.817 6.609-.811 6.889-.959 8.328-4.405 2.358-5.641 5.17-19.914 5.936-30.122l.702-9.365-2.402.789c-1.321.434-8.927.764-16.902.733-22.41-.088-40.484-3.773-59.991-12.234-5.145-2.231-9.624-4.057-9.954-4.057-.329 0-2.389 1.423-4.577 3.162M.272 128c0 2.475.195 3.488.434 2.25.238-1.238.238-3.263 0-4.5-.239-1.237-.434-.225-.434 2.25m122.37 26.893c-5.687 9.703-13.686 29.703-13.617 34.045.034 2.149 10.729 10.006 20.975 15.408 18.178 9.585 38.156 14.519 62.331 15.394l14.831.537 5.997-5.889c3.298-3.238 8.554-9.263 11.68-13.388 6.691-8.828 14.898-24.012 12.962-23.976-.716.013-6.701.444-13.301.958-32.331 2.517-66.423-6.424-89.919-23.583-4.066-2.969-7.639-5.399-7.939-5.399-.3 0-2.1 2.652-4 5.893m-16.076 43c-.304.492-1.081 6.639-1.727 13.66-.907 9.858-.9 15.395.029 24.309.662 6.348 1.376 11.716 1.588 11.927.211.212 3.908.841 8.214 1.398 10.148 1.313 28.494.312 39.618-2.162 13.95-3.102 33.302-11.546 42.212-18.419 1.987-1.532 1.986-1.543-.144-1.574-6.232-.093-24.027-2.398-32.299-4.185-18.143-3.919-38.983-12.893-50.922-21.93-5.65-4.276-5.763-4.328-6.569-3.024"/></svg>